<?xml version="1.0" encoding="UTF-8"?>
<svg id="Layer_1" data-name="Layer 1" xmlns="http://www.w3.org/2000/svg" xmlns:xlink="http://www.w3.org/1999/xlink" viewBox="0 0 549.17 498.21">
  <defs>
    <style>
      .cls-1 {
        fill: none;
      }

      .cls-2 {
        fill: #fff7e2;
      }

      .cls-3 {
        fill: #868686;
      }

      .cls-4 {
        clip-path: url(#clippath-11);
      }

      .cls-5 {
        clip-path: url(#clippath-10);
      }

      .cls-6 {
        clip-path: url(#clippath-13);
      }

      .cls-7 {
        clip-path: url(#clippath-12);
      }

      .cls-8 {
        clip-path: url(#clippath-1);
      }

      .cls-9 {
        clip-path: url(#clippath-3);
      }

      .cls-10 {
        clip-path: url(#clippath-4);
      }

      .cls-11 {
        clip-path: url(#clippath-2);
      }

      .cls-12 {
        clip-path: url(#clippath-7);
      }

      .cls-13 {
        clip-path: url(#clippath-6);
      }

      .cls-14 {
        clip-path: url(#clippath-9);
      }

      .cls-15 {
        clip-path: url(#clippath-8);
      }

      .cls-16 {
        clip-path: url(#clippath-5);
      }

      .cls-17 {
        fill: #f8e3a7;
      }

      .cls-18 {
        fill: #b49c75;
      }

      .cls-19 {
        clip-path: url(#clippath);
      }
    </style>
    <clipPath id="clippath">
      <rect class="cls-1" x="68.48" y="59.06" width="374.91" height="436.79"/>
    </clipPath>
    <clipPath id="clippath-1">
      <rect class="cls-1" x="68.48" y="59.06" width="374.91" height="428.8"/>
    </clipPath>
    <clipPath id="clippath-2">
      <rect class="cls-1" x="271.56" y="421.4" width="70.3" height="74.45"/>
    </clipPath>
    <clipPath id="clippath-3">
      <rect class="cls-1" x="79.1" y="75.16" width="165.99" height="310.73"/>
    </clipPath>
    <clipPath id="clippath-4">
      <rect class="cls-1" y="0" width="549.17" height="459.67"/>
    </clipPath>
    <clipPath id="clippath-5">
      <rect class="cls-1" x="24.25" width="467.02" height="459.68"/>
    </clipPath>
    <clipPath id="clippath-6">
      <rect class="cls-1" y="57.76" width="51.24" height="114.12"/>
    </clipPath>
    <clipPath id="clippath-7">
      <rect class="cls-1" x="482.01" y="249.83" width="67.16" height="108.74"/>
    </clipPath>
    <clipPath id="clippath-8">
      <rect class="cls-1" x="62.7" y="47.79" width="425.78" height="450.42"/>
    </clipPath>
    <clipPath id="clippath-9">
      <rect class="cls-1" x="62.7" y="47.79" width="425.78" height="450.42"/>
    </clipPath>
    <clipPath id="clippath-10">
      <rect class="cls-1" x="282.07" y="416.75" width="39.47" height="58.57"/>
    </clipPath>
    <clipPath id="clippath-11">
      <rect class="cls-1" x="139.24" y="161.47" width="235.26" height="70.23"/>
    </clipPath>
    <clipPath id="clippath-12">
      <rect class="cls-1" x="139.24" y="161.47" width="235.26" height="70.08"/>
    </clipPath>
    <clipPath id="clippath-13">
      <rect class="cls-1" x="143.6" y="165.68" width="230.85" height="66.02"/>
    </clipPath>
  </defs>
  <g class="cls-19">
    <g class="cls-8">
      <path class="cls-17" d="M386.49,115.51c50.84,56.41,56.65,144.83,13.46,207.47-8.18,12.03-17.55,22.74-28.55,32.48-5.45,4.78-11.18,9.23-17.18,13.31-.47.26-.9.59-1.26.96-.16.1-.33.21-.49.33-4.97,3.79-9.46,8.21-13.3,13.15-3.8,4.9-6.99,10.29-9.4,16.01-.12.27-.23.54-.34.8,0,.02-.02.04-.02.06-2,4.86-3.42,9.97-4.3,15.15-.74,3.62-1.4,8.48,2.26,10.14,0,0,0,0,.01,0,.74.4,1.59.64,2.48.67,2.05-.03,4.07.96,5.3,2.6,0,0,.01.01.02.02,1.11,1.49,1.57,3.42,1.2,5.25-.55,2.86-3.12,5.12-6.04,5.28-2.85.27-4.86,3.17-4.49,5.91.47,3.2,2.94,4.43,5.62,4.46,2.68.62,4.79,3.05,5,5.8,0,.02,0,.04.02.06h0c.12,1.68-.42,3.37-1.45,4.67,0,.01-.02.03-.03.04-.46.56-1.02,1.05-1.64,1.43-.3.11-.6.24-.89.4-.34.1-.67.21-.99.32,0,0,0,0-.01,0-.23.05-.46.12-.68.19-.11.02-.22.03-.33.04-2.84.35-4.87,3.1-4.48,5.91.63,3.28,2.98,4.53,5.8,4.46.34.16.71.3,1.08.4,1.49.74,2.65,2.07,3.23,3.61.05.12.09.25.13.38.02.08.05.16.07.24.02.08.04.16.06.24.05.22.08.44.11.66,0,0,0,.01,0,.02,0,.07.02.15.02.22.01.19.02.37.02.56,0,.03,0,.06.01.09-.04,2.7-1.86,5.24-4.43,6.1-.88.1-1.73.3-2.49.6-1,.07-2.02.14-2.99.29,0,0-.02,0-.02,0-.58.06-1.14.12-1.68.16-3.96.33-7.79.55-11.69.72-1.45-.04-2.97.11-4.33.16-9.54.27-19.1.11-28.63-.48,0-.17,0-.33,0-.5.04-1.07.08-2.2.03-3.29.04-.24.05-.5.06-.76v-154.94c16.62-5.19,31.08-20.75,36.83-36.71,1.46-4.03,2.51-8.14,3.14-12.38.68-2.98-1.35-6.07-4.41-6.47-.49-.04-.94-.04-1.35,0-.43-.12-.89-.19-1.39-.21-3.95,0-7.9,0-11.85,0-.46-.05-.96-.06-1.48,0-4.48,0-8.96,0-13.45-.01-2.01,0-4.03-.02-6.04-.03V59.31s.03,0,.04,0c.83.11,1.67.21,2.5.33,0,0,.02,0,.02,0,3.49.49,6.96,1.09,10.41,1.78,35.86,7.3,69.02,26.62,93.18,54.07Z"/>
      <path class="cls-17" d="M237.6,327.44v69.12c-4.09-.52-8.16-1.18-12.21-1.98-21.86-4.42-42.8-13.16-61.3-25.64-70.26-46.61-95.35-141.56-57.23-216.8,22.66-45.98,67.41-80.62,117.81-90.69,2.44-.5,4.89-.95,7.36-1.35.93-.02,1.89-.18,2.84-.41.91-.11,1.83-.24,2.74-.36v212.21c-1.38,0-2.76,0-4.14-.02-8.99,0-17.98-.01-26.97-.02-1.15-.14-2.3-.07-3.35.22-.31-.01-.64,0-1,.02-3.61.46-5.24,4.27-4.25,7.52,1.03,6.29,3.04,12.36,5.89,18.05,6.93,13.83,19.31,24.77,33.82,30.12Z"/>
    </g>
    <g class="cls-11">
      <path class="cls-3" d="M338.88,423.74c.16,1.21-.71,2.37-1.93,2.54-1.12.15-2.24.3-3.36.44.99.42,1.91,1.03,2.72,1.86,4.61,4.93,2.22,10.77-2.7,13.6.06.98.02,1.97-.1,2.95,2.57,3.04,4.21,6.78,4.15,10.51.04,3.89-1.61,7.68-4.26,10.49,8.19,7.93,5.07,24.04-8.58,26.07-4.56-.11-9.05,1.23-13.41-.54-4.39.08-8.79.48-13.14-.3-8.28,4.25-19.21-.3-21.67-9.55-.95-3.67-.52-7.27.86-10.49-.65-.86-1.26-1.76-1.82-2.7-3.84-5.97-2.66-13.5-1.11-19.99-.86-2.01-1.14-4.34-1.1-6.55.08,1,.07,1.99.32,2.96-1.08-6.21,1.04-11.08,4.6-14.2-1.2-.7-1.52-2.35-.74-3.43-1.15-1.35-.3-4,2.01-3.73.69.05,1.37.09,2.06.14.49,0,.98.01,1.45.09h0c11.39.67,22.89.62,34.25-.14,6.33-.43,12.65-1.08,18.94-1.94,1.21-.16,2.37.71,2.54,1.93Z"/>
    </g>
    <g class="cls-9">
      <path class="cls-18" d="M184.3,385.27c-5.29-3.13-10.77-5.93-16.25-8.71-2.69-1.36-5.44-2.62-8.17-3.9-.69-.32-1.38-.65-2.07-.97-2.33-1.59-4.63-3.2-6.91-4.86-1.61-1.36-3.2-2.75-4.78-4.16-1.78-1.59-3.53-3.22-5.19-4.94-.87-.9-1.77-1.79-2.61-2.73-.9-1-1.79-2-2.69-3-1.27-1.48-2.54-2.96-3.82-4.44-1.62-1.88-3.22-3.8-4.99-5.54-.42-.41-.85-.83-1.29-1.22,5.31-12.58,17.14-22.14,31.45-23.67,20.89-2.23,40.23,13.37,42.46,34.25,1.44,13.45-4.52,26.26-14.52,34.27-.21-.12-.41-.25-.62-.37Z"/>
      <path class="cls-18" d="M154.98,261.51c0-5.2,4.35-9.55,9.55-9.55s9.55,4.35,9.55,9.55-4.35,9.55-9.55,9.55-9.55-4.35-9.55-9.55Z"/>
      <path class="cls-18" d="M84.49,267.4c-.52-2.49-.93-4.99-1.32-7.5-.13-.97-.27-1.94-.39-2.91-.08-.71-.17-1.41-.25-2.12-.05-.48-.07-.98-.16-1.45-.11-.52-.25-.96-.47-1.44-.38-.83-1.24-1.35-2.13-1.45-.03-.25-.05-.49-.08-.73-.13-1.22-.18-2.45-.26-3.68,0-.12-.02-.25-.02-.38v-.1c0-5.66,0-11.33-.02-16.99,0-2.14-.02-4.28-.03-6.41.06-1.01.14-2.02.23-3.03.14-1.67.17-3.35.33-5.01,0-.06.02-.12.03-.18,2.28-.64,4.67-.98,7.13-.98,14.84,0,27.25,12.41,27.25,27.25s-12.41,27.25-27.25,27.25c-.87,0-1.73-.04-2.58-.13Z"/>
      <path class="cls-18" d="M114.14,269.14c0-1.49,1.25-2.74,2.74-2.74s2.74,1.25,2.74,2.74-1.25,2.74-2.74,2.74-2.74-1.25-2.74-2.74Z"/>
      <path class="cls-18" d="M136.45,96.93c.44-.43.88-.85,1.33-1.28,2.07-1.88,4.11-3.78,6.23-5.59,2.24-1.92,4.43-3.9,6.64-5.86.03,0,.05,0,.08,0,.74.04,1.38-.14,2.02-.52.32-.2.64-.39.96-.59.58-.36,1.15-.74,1.72-1.11,2.5-1.64,4.93-3.36,7.33-5.13.65-.48,1.3-.96,1.95-1.44,6.91,3.23,11.8,10.29,11.8,18.3,0,10.98-9.18,20.16-20.16,20.16-9.89,0-18.32-7.44-19.9-16.95Z"/>
      <path class="cls-18" d="M244.34,106.03s0,.07,0,.1c0-.04,0-.07,0-.1Z"/>
      <path class="cls-18" d="M210.15,128.42c0-13.62,11.38-25,25-25,3.19,0,6.26.62,9.09,1.76.04.36.07.73.12,1.09.16,2.22.32,4.45.37,6.68.05,2.29.09,4.57.1,6.86.01,2.64,0,5.29-.01,7.94-.44.47-.72,1.1-.73,1.77-.01.78.1,1.54.22,2.31.03.19.09.38.16.55.05.51.09,1.02.12,1.52-.04.45-.08.89-.12,1.34-.29,3.12-.61,6.23-.94,9.34-.26,2.52-.49,5.05-.6,7.59-2.46.83-5.08,1.28-7.78,1.28-13.62,0-25-11.39-25-25.01Z"/>
    </g>
  </g>
  <g class="cls-10">
    <g class="cls-16">
      <path class="cls-17" d="M99.64,72.65c-2.82-2.82-2.98-7.8,0-10.61,12.23-11.51,25.61-21.69,39.98-30.39,25.46-15.35,53.93-25.69,83.3-30.27,9.73-1.13,11.79,13.25,2.04,14.86-12.58,1.96-24.95,5.12-37,9.24-17.79,6.2-34.72,14.71-50.34,25.23-7.67,5.23-15,10.91-21.98,17.01-4.26,4.08-10.24,10.56-16,4.93Z"/>
      <path class="cls-17" d="M477.95,227.01c-3.04-2.91-2.04-7.66-2.51-11.34-.67-9.64-1.98-19.24-3.87-28.72-7.49-36.87-24.87-71.59-49.73-99.81-29.99-34.1-70.79-58.42-115.13-68.32-9.34-2.65-5.65-16.94,3.99-14.46,91.19,19.83,164.86,99.14,177.67,191.61,1.29,8.52,2.05,17.12,2.38,25.73.27,6.45-8.42,10.03-12.8,5.3Z"/>
      <path class="cls-17" d="M411.71,395.13c-2.82-2.82-2.98-7.81,0-10.61,3.55-3.46,6.91-7.12,10.21-10.82,8.26-9.47,15.79-19.58,22.33-30.31,5.18-8.35,17.74-1.04,12.95,7.57-8.62,14.14-18.76,27.34-30.16,39.34-3.68,4.52-9.84,10.22-15.33,4.83Z"/>
      <path class="cls-17" d="M208.97,456.94c-104.59-21.45-184.47-121.71-181.83-228.48.27-9.77,14.75-9.91,15,0-.23,25.01,3.78,49.49,11.88,73.06,15.2,43.99,44.99,82.63,83.54,108.69,22.79,15.4,48.5,26.45,75.39,32.27,9.34,2.61,5.64,16.95-3.99,14.46Z"/>
      <path class="cls-17" d="M57.44,117.78c0-4.09,3.41-7.5,7.5-7.5s7.5,3.41,7.5,7.5-3.41,7.5-7.5,7.5-7.5-3.41-7.5-7.5Z"/>
      <path class="cls-17" d="M469.16,282.83c0-4.09,3.41-7.5,7.5-7.5s7.5,3.41,7.5,7.5-3.41,7.5-7.5,7.5-7.5-3.41-7.5-7.5Z"/>
    </g>
    <g class="cls-13">
      <path class="cls-17" d="M.25,160.63c0-6,5-11,11-11s11,5,11,11-5,11-11,11S.25,166.63.25,160.63Z"/>
      <path class="cls-17" d="M40.49,63.26c0-2.86,2.39-5.25,5.25-5.25s5.25,2.39,5.25,5.25-2.39,5.25-5.25,5.25-5.25-2.39-5.25-5.25Z"/>
      <path class="cls-17" d="M5.47,102.02c0-4.91,4.09-9,9-9s9,4.09,9,9-4.09,9-9,9-9-4.09-9-9Z"/>
    </g>
    <g class="cls-12">
      <path class="cls-17" d="M547.98,263.59c-.93,5.92-6.66,10.09-12.58,9.15-5.92-.93-10.09-6.66-9.15-12.58.93-5.92,6.66-10.09,12.58-9.15,5.92.93,10.09,6.66,9.15,12.58Z"/>
      <path class="cls-17" d="M493.07,353.5c-.45,2.82-3.18,4.81-6,4.37-2.82-.45-4.81-3.18-4.37-6,.45-2.82,3.18-4.81,6-4.37,2.82.45,4.81,3.18,4.37,6Z"/>
      <path class="cls-17" d="M533.7,320.67c-.76,4.85-5.45,8.25-10.29,7.49-4.85-.76-8.25-5.45-7.49-10.29.76-4.85,5.45-8.25,10.29-7.49,4.85.76,8.25,5.45,7.49,10.29Z"/>
    </g>
  </g>
  <g class="cls-15">
    <g class="cls-14">
      <path d="M315.9,271.81c3.07.41,5.09,3.49,4.41,6.47-.64,4.23-1.69,8.35-3.14,12.38-5.75,15.96-20.21,31.52-36.83,36.71v154.94c0,.27-.03.52-.06.76.05,1.09,0,2.21-.03,3.29,0,.17,0,.33,0,.5,9.53.59,19.09.76,28.63.48,1.36-.05,2.88-.2,4.33-.16,3.9-.17,7.73-.39,11.69-.72.54-.04,1.11-.1,1.68-.16,0,0,.02,0,.02,0,.97-.14,1.99-.22,2.99-.29.76-.3,1.61-.5,2.49-.6,2.57-.86,4.39-3.41,4.43-6.1,0-.03,0-.06-.01-.09,0-.19,0-.37-.02-.56,0-.07-.02-.15-.02-.22,0,0,0-.02,0-.02-.03-.22-.06-.44-.11-.66-.02-.08-.04-.16-.06-.24-.02-.08-.04-.16-.07-.24-.04-.12-.08-.25-.13-.38-.58-1.54-1.74-2.87-3.23-3.61-.37-.1-.73-.23-1.08-.4-.3,0-.59,0-.88-.02-.25-.05-.5-.08-.75-.1-2.07-.39-3.67-1.71-4.18-4.34-.38-2.81,1.65-5.56,4.48-5.91.11-.01.22-.02.33-.04.22-.07.45-.14.68-.19,0,0,0,0,.01,0,.32-.12.65-.22.99-.32.29-.16.59-.29.89-.4.62-.38,1.17-.87,1.64-1.43.01-.01.02-.03.03-.04,1.04-1.3,1.57-2.99,1.45-4.66h0s-.01-.05-.02-.07c-.21-2.75-2.32-5.18-5-5.8-2.68-.02-5.15-1.26-5.62-4.46-.38-2.75,1.64-5.64,4.49-5.91,2.91-.16,5.49-2.42,6.04-5.28.37-1.83-.09-3.76-1.2-5.25,0,0-.01-.01-.02-.02-1.23-1.63-3.25-2.63-5.3-2.6-.89-.03-1.74-.27-2.48-.67,0,0,0,0-.01,0-3.66-1.67-3-6.52-2.26-10.14.71-4.19,1.77-8.34,3.22-12.34.34-.95.7-1.88,1.08-2.81,0-.02.02-.04.02-.06.11-.27.22-.54.34-.8.07-.18.15-.35.23-.53,2.38-5.52,5.49-10.73,9.17-15.48,3.84-4.94,8.33-9.36,13.3-13.15.16-.12.33-.23.49-.33.36-.38.79-.71,1.26-.96,6-4.07,11.73-8.53,17.18-13.31,11-9.74,20.37-20.45,28.55-32.48,43.18-62.64,37.37-151.06-13.46-207.47-24.16-27.45-57.32-46.78-93.18-54.07-3.45-.7-6.92-1.29-10.41-1.78,0,0-.01,0-.02,0-.83-.12-1.67-.23-2.5-.33-.02,0-.03,0-.04,0v212.23c2.02.01,4.03.03,6.04.03,4.48,0,8.97,0,13.45.01.52-.05,1.02-.05,1.48,0,3.95,0,7.9,0,11.85,0,.5.02.96.09,1.39.21.22-.02.44-.04.68-.04.21,0,.44,0,.67.03ZM291.4,497.86c-4.07-.11-8.14-.29-12.21-.55-2.73-.34-6.01.24-8.07-1.98-.75-.74-1.17-1.65-1.32-2.59v-11.36c.01-.06.02-.12.03-.17v-156.99c.05-1.77.75-3.08,1.76-3.93.55-.7,1.28-1.26,2.13-1.62,0,0,0,0,0,.01,13.42-4.09,25.01-13.69,31.27-26.27,1.64-3.29,2.93-6.74,3.85-10.29-2.68,0-5.36,0-8.04,0h-2.21c-2.18,0-4.36,0-6.54,0-.01,0-.02,0-.03,0-4.8,0-9.61,0-14.41,0-3.77.41-7.7-.87-7.82-5.25,0-.18,0-.37.03-.55,0-.04,0-.08,0-.12V53.53c.07-3.76,3.23-5.49,6.05-5.11,1.82-.14,3.85.18,5.59.45.95.02,1.91.13,2.82.38,6.76.95,13.47,2.28,20.08,3.98,150.04,39.84,183.86,236.58,55.81,324.15-.3.28-.62.51-.97.7-.11.1-.22.2-.34.29-3.27,2.46-6.26,5.27-8.98,8.32-3.94,4.51-7.27,9.55-9.75,15.01-.25.55-.5,1.11-.73,1.67-.39,1.16-.92,2.34-1.38,3.53-.9,2.61-1.62,5.27-2.2,7.97-.12.53-.22,1.08-.31,1.64,1.77.63,3.41,1.51,4.59,2.43,1.53,1,2.6,2.09,3.3,3.18,2.4,2.85,3.72,7.57,3.57,10.71,0,4.26-1.77,8.39-4.64,11.48.96.99,1.75,2.02,2.27,2.98,1.62,2.71,2.27,5.02,2.26,6.89.42,4.27-.8,8.65-3.36,12.08-.31.47-.67.93-1.08,1.38,1.41,1.5,2.51,3.14,3.07,4.58.18.39.34.78.48,1.16.03.07.05.14.08.22.91,2.45,1.12,4.48.84,6.1-.07,2.02-.43,3.96-.99,5.41-1.86,5.16-6.42,9.27-11.73,10.61-2.09.91-4.92.93-7.3,1.11-.11.01-.22.02-.33.02-5.54.46-11.09.8-16.64.95-.38.01-.75.02-1.12.03-.04,0-.08,0-.12,0-.07,0-.15,0-.22,0-2.93.08-5.87.12-8.81.12-2.75,0-5.51-.04-8.27-.11Z"/>
      <path d="M248.1,276.03c.04.25.06.5.06.76-.25,5.07-4.71,5.54-8.8,5.28-2.56,0-5.12-.03-7.68-.04-7.5,0-15-.01-22.5-.02.38,1.46.81,2.91,1.3,4.35,4.37,12.49,13.73,23.08,25.57,28.98,2.59,1.27,5.27,2.37,8.03,3.19,1.97.61,3.11,1.91,3.56,3.4,0,0,0,.01,0,.02.4.88.57,1.88.46,2.9v77.55c-.11,3.43-2.65,5.16-5.21,5.18-.41.04-.84.04-1.3-.02-78.59-6.47-147.17-69.78-160.16-147.52-18.47-92.93,46.29-189.94,139.22-208.46,3.48-.75,6.98-1.42,10.5-1.98,1.36-.32,2.84-.48,4.25-.61h.02c.08-.01.16-.02.24-.03,1.26-.21,2.58-.42,3.85-.48,0,0,.01,0,.02,0,.96-.15,1.97-.21,2.94-.14,2.69-.19,5.52,1.53,5.64,5.17v222.52ZM237.6,396.56v-69.12c-14.5-5.34-26.88-16.29-33.82-30.12-2.86-5.7-4.86-11.76-5.89-18.05-.99-3.25.64-7.05,4.25-7.52.35-.03.68-.03,1-.02,1.04-.29,2.2-.36,3.35-.22,8.99,0,17.98.02,26.97.02,1.38.01,2.77.02,4.14.02V59.34c-.91.12-1.82.25-2.74.36-.94.23-1.91.38-2.84.41-2.46.4-4.92.86-7.36,1.35-50.4,10.07-95.15,44.71-117.81,90.69-38.12,75.23-13.04,170.18,57.23,216.8,18.5,12.47,39.44,21.22,61.3,25.64,4.05.8,8.12,1.46,12.21,1.98Z"/>
    </g>
    <g class="cls-5">
      <path d="M309.21,418.79c4.8.09,11.55-1.79,12.08,5.08-.18,5.24-5.21,5.48-9.28,5.37-6.38.15-12.77.14-19.15-.09-2.47-.16-5.33.29-7.21-1.67-3.29-3.05-.82-9.17,3.71-8.96,6.61.27,13.23.38,19.85.28Z"/>
      <path d="M308.43,441.35c4.97.16,12.24-2.26,12.84,4.98-.12,5.57-5.82,5.42-9.97,5.44-4.25.14-8.51.21-12.77.19-3.05-.02-6.11-.05-9.16-.16-6.91-.26-6.91-10.29,0-10.5,6.35.14,12.7.2,19.05.05Z"/>
      <path d="M321.11,469.37c.05,2.85-2.43,5.25-5.25,5.25-6.89.32-13.79.44-20.68.35-1.99-.03-3.98-.13-5.96-.13-6.88-.16-6.89-10.33,0-10.5,3.09,0,6.18.15,9.28.16,5.79.03,11.59-.11,17.37-.38,2.86-.13,5.25,2.49,5.25,5.25Z"/>
    </g>
    <g class="cls-4">
      <g class="cls-7">
        <path class="cls-2" d="M311.25,210.81c-1.55-3.75-2.41-7.84-2.42-12.1-.05-17.81,14.78-32.72,32.59-32.77,17.81-.05,32.72,14.78,32.77,32.59.05,17.81-14.78,32.72-32.59,32.77-1.24,0-2.47-.06-3.68-.2.99-.59,1.94-1.3,2.82-2.11,3.55-3.26,5.68-7.91,5.82-12.72.28-9.56-7.64-18.56-17.45-18.53-4.72.01-9.21,1.51-12.72,4.73-2.45,2.25-4.23,5.17-5.14,8.35Z"/>
        <path class="cls-2" d="M169.55,230.64c-3.98-.84-7.84-2.43-11.37-4.82-14.74-10-18.7-30.65-8.7-45.39,10-14.74,30.65-18.7,45.39-8.7,14.74,10,18.7,30.65,8.7,45.39-.7,1.03-1.45,2.01-2.24,2.93.07-1.15.02-2.33-.16-3.52-.69-4.77-3.33-9.15-7.23-11.97-7.74-5.62-19.64-4.15-25.15,3.97-2.65,3.91-3.95,8.45-3.26,13.17.48,3.3,1.89,6.41,4,8.95Z"/>
      </g>
      <g class="cls-6">
        <path d="M143.85,198.77c0-17.81,14.87-32.68,32.68-32.68,1.24,0,2.47.07,3.68.21-1,.59-1.94,1.29-2.83,2.1-3.55,3.25-5.7,7.89-5.85,12.7-.3,9.56,7.59,18.58,17.4,18.58,4.72,0,9.21-1.48,12.73-4.7,2.46-2.25,4.24-5.16,5.16-8.33,1.54,3.76,2.39,7.85,2.39,12.11,0,17.81-14.87,32.68-32.68,32.68s-32.68-14.87-32.68-32.68Z"/>
        <path d="M308.83,198.61c0-17.81,14.87-32.68,32.68-32.68,1.24,0,2.47.07,3.68.21-1,.59-1.94,1.29-2.83,2.1-3.55,3.25-5.7,7.89-5.85,12.7-.3,9.56,7.59,18.58,17.4,18.58,4.72,0,9.21-1.48,12.73-4.7,2.46-2.25,4.24-5.16,5.16-8.33,1.54,3.76,2.39,7.85,2.39,12.11,0,17.81-14.87,32.68-32.68,32.68s-32.68-14.87-32.68-32.68Z"/>
      </g>
    </g>
  </g>
</svg>